<?xml version="1.0" standalone="no"?>
<!DOCTYPE svg PUBLIC "-//W3C//DTD SVG 20010904//EN"
 "http://www.w3.org/TR/2001/REC-SVG-20010904/DTD/svg10.dtd">
<svg version="1.0" xmlns="http://www.w3.org/2000/svg"
 width="500.000000pt" height="500.000000pt" viewBox="0 0 500.000000 500.000000"
 preserveAspectRatio="xMidYMid meet">
<metadata>
Created by potrace 1.11, written by Peter Selinger 2001-2013
</metadata>
<g transform="translate(0.000000,500.000000) scale(0.100000,-0.100000)"
fill="#000000" stroke="none">
<path d="M2063 3993 c-20 -3 -37 -12 -44 -24 -11 -21 -6 -1338 7 -1773 3 -118
1 -253 -6 -335 -6 -75 -15 -260 -20 -411 -5 -151 -12 -307 -16 -347 l-7 -72
29 -12 c74 -28 339 -18 371 14 9 9 18 92 29 247 18 272 22 1518 8 2237 -11
501 3 457 -144 473 -95 10 -146 10 -207 3z"/>
<path d="M2600 3974 c-119 -18 -130 -37 -130 -223 0 -120 2 -132 23 -156 32
-37 112 -48 372 -49 258 -1 275 3 300 69 23 58 18 296 -6 320 -34 34 -116 45
-329 44 -113 -1 -216 -3 -230 -5z"/>
<path d="M2960 2730 c-36 -4 -113 -8 -172 -9 -141 -1 -252 -18 -273 -41 -22
-24 -48 -244 -34 -292 23 -85 62 -94 401 -90 161 2 168 3 195 26 27 24 28 27
26 118 -4 124 -19 268 -29 278 -16 14 -48 17 -114 10z"/>
</g>
</svg>
